<?xml version="1.0" encoding="UTF-8" standalone="no"?>
<!-- Created with Inkscape (http://www.inkscape.org/) -->

<svg
   version="1.1"
   id="svg1"
   width="136"
   height="343"
   viewBox="0 0 136 343"
   xmlns="http://www.w3.org/2000/svg"
   xmlns:svg="http://www.w3.org/2000/svg">
  <defs
     id="defs1" />
  <g
     id="layer1">
    <path
       style="fill:#fb2593;stroke:none"
       d="M 52.40874,0.29391607 V 163.29391 c 0,9.60352 1.966373,21.65265 -0.314045,30.98534 -1.01075,4.13652 -5.419273,6.51742 -5.41898,11.01774 2.79e-4,4.25691 3.495167,7.77933 7.736111,7.77933 4.359338,0 7.777328,-3.42152 7.779318,-7.77933 0.002,-4.34395 -3.99473,-6.86114 -4.63503,-11.01774 -1.521455,-9.8768 -0.14737,-20.98996 -0.14737,-30.98534 V 0.29391607 H 52.40874 m 17.000004,0 V 137.29391 c 0,21.40228 3.36428,45.92249 -0.22455,67 -1.68468,9.89433 -13.132872,15.54004 -15.458323,25 -4.021648,16.36011 -0.317131,38.12436 -0.317131,55 0,2.96729 -1.752541,16.29926 2.169754,17.0787 4.31525,0.85755 2.83025,-13.6705 2.83025,-16.0787 0,-16.177 -3.654652,-37.36597 0.42978,-53 2.47695,-9.48105 13.33357,-15.3073 15.29244,-25 4.16613,-20.61459 0.27778,-45.93913 0.27778,-67 V 0.29391607 h -5 m 16,0 V 188.29391 c 0,9.36113 2.95771,24.8795 -2.26389,32.99536 -3.75652,5.83872 -12.2851,5.00502 -14.87346,11.09879 -1.78951,4.21301 0.74966,9.32687 5.17747,10.45678 9.3925,2.39681 8.46602,-7.12938 10.67515,-12.55093 1.46653,-3.59909 4.65253,-6.21162 5.7716,-10 2.67667,-9.06131 0.51313,-21.57234 0.51313,-31 V 0.29391607 h -5 M 54.40874,203.49916 c 2.31591,0 2.315887,3.5895 0,3.5895 -2.315884,0 -2.315903,-3.5895 0,-3.5895 m 21.000004,30 c 2.31589,0 2.31589,3.5895 0,3.5895 -2.3159,0 -2.31589,-3.5895 0,-3.5895 z"
       id="path3" />
  </g>
</svg>
